<?xml version="1.0" encoding="UTF-8"?>
<svg xmlns="http://www.w3.org/2000/svg" version="1.1" xmlns:svgjs="http://svgjs.dev/svgjs" viewBox="0 0 2000 2242">
  <defs>
    <style>
      .cls-1 {
        fill: #d5b263;
      }

      .cls-2 {
        fill: #293040;
      }

      .cls-3 {
        fill: #c9ad8b;
      }
    </style>
  </defs>
  <!-- Generator: Adobe Illustrator 28.6.0, SVG Export Plug-In . SVG Version: 1.2.0 Build 709)  -->
  <g>
    <g id="TFU">
      <g id="weight-object">
        <circle id="circle" class="cls-3" cx="1000" cy="1121" r="386.1"/>
        <path id="weight" class="cls-2" d="M1260.2,1071h-30v-70.1c0-5.5-4.5-10-10-10h-40c-5.5,0-10,4.5-10,10v90.1h-340.3v-90.1c0-5.5-4.5-10-10-10h-40c-5.5,0-10,4.5-10,10v70.1h-30c-5.5,0-10,4.5-10,10v80.1c0,5.5,4.5,10,10,10h30v70.1c0,5.5,4.5,10,10,10h40c5.5,0,10-4.5,10-10v-90.1h340.3v90.1c0,5.5,4.5,10,10,10h40c5.5,0,10-4.5,10-10v-70.1h30c5.5,0,10-4.5,10-10v-80.1c0-5.5-4.5-10-10-10"/>
      </g>
      <g id="text-0">
        <path class="cls-1" d="M544,974.1l-4.9,15.3-69.2-22.3-6.1,19.1-13.4-4.3,17.2-53.5,13.4,4.3-6.1,19.1,69.2,22.3Z"/>
        <path class="cls-1" d="M563.9,925.7l-7,14.5-78.2-37.7,7-14.5,32.6,15.7,12.4-25.8-32.6-15.7,7-14.6,78.2,37.7-7,14.6-33.2-16-12.4,25.8,33.2,16Z"/>
        <path class="cls-1" d="M624.2,826.9l-27.4,39.1-71.1-49.7,26-37.1,11.1,7.8-17.1,24.4,16.6,11.6,13.6-19.4,10.8,7.6-13.6,19.4,21,14.7,18.5-26.4,11.5,8.1Z"/>
        <path class="cls-1" d="M669.1,780.1l-11.5,11-60-62.7,32.8-31.4,9.5,9.9-21.2,20.3,15.8,16.4,18.5-17.7,9.7,10.1-18.5,17.7,25.1,26.2Z"/>
        <path class="cls-1" d="M716.5,739.9l-12.5,9.8-53.5-68.3,12.5-9.8,53.5,68.3Z"/>
        <path class="cls-1" d="M761.1,712.2l-13.8,8.3-37.4-62.4-17.2,10.3-7.2-12.1,48.2-28.9,7.2,12.1-17.2,10.3,37.4,62.4Z"/>
        <path class="cls-1" d="M850.4,672.8l-1.1.5-56.8-27.3-5.5-3.1,5.3,10.9,15.1,35.5-14.1,6-34.5-81.3,1.3-.5,56.4,28,6.2,3.5-5.2-10.7-15.7-36.9,14-6,34.6,81.4Z"/>
        <path class="cls-1" d="M918.9,654.3l-46.4,11.3-20.6-84.3,44-10.8,3.2,13.2-28.9,7.1,4.8,19.7,23-5.6,3.1,12.9-23,5.6,6.1,24.9,31.3-7.7,3.3,13.7Z"/>
        <path class="cls-1" d="M959.1,651.8h0c-6.1.6-11.5,0-16.2-1.5-4.8-1.6-8.3-3.4-10.6-5.4h0l5.1-13.7c1,1.1,2.4,2.2,4.5,3.4,2,1.2,4.3,2.2,6.9,3,2.6.8,5.2,1.1,7.9.8h0c3.1-.3,5.7-1.4,7.9-3.4,2.1-2,3-4.6,2.7-8h0c-.3-3.4-1.8-5.9-4.3-7.6s-6-3.6-10.3-5.7h0c-3.5-1.7-7-3.5-10.5-5.5-3.4-2-6.4-4.6-8.8-7.7-2.5-3.1-4-7.2-4.5-12.3h0c-.7-6.8,1-12.6,5-17.4,3.9-4.9,10-7.7,18.3-8.5h0c4.2-.4,7.8-.2,10.8.5,3.1.7,5.6,1.6,7.6,2.7,1.9,1.1,3.4,2,4.4,2.8h0l-5.7,13.3c-.6-.7-1.7-1.7-3.2-2.8-1.5-1.1-3.2-1.9-5.3-2.7-2.1-.7-4.3-.9-6.7-.7h0c-3.3.3-5.8,1.5-7.3,3.6-1.5,2.1-2.1,4.5-1.8,7.1h0c.3,3.3,1.8,5.9,4.5,7.8,2.7,1.9,5.8,3.7,9.5,5.5h0c4.1,1.9,7.9,3.9,11.5,5.9,3.5,2,6.4,4.5,8.8,7.6,2.3,3.1,3.8,7.1,4.2,12.1h0c.7,7.6-1.1,13.7-5.4,18.4-4.3,4.8-10.6,7.6-18.9,8.4h0Z"/>
        <path class="cls-1" d="M1025.2,650.7h0c-6.1-.2-11.4-1.5-15.8-3.7-4.5-2.2-7.8-4.5-9.8-6.8h0l6.9-12.8c.8,1.2,2.1,2.5,4,4,1.8,1.5,4,2.8,6.5,4,2.5,1.2,5,1.8,7.7,1.9h0c3.1.1,5.9-.6,8.2-2.3,2.4-1.6,3.6-4.2,3.7-7.6h0c.1-3.4-.9-6.1-3.2-8.2s-5.4-4.4-9.5-7.1h0c-3.3-2.2-6.5-4.5-9.7-6.9-3.1-2.5-5.7-5.4-7.7-8.8-2-3.4-2.9-7.7-2.7-12.8h0c.3-6.8,2.7-12.3,7.3-16.6,4.5-4.3,11-6.2,19.3-5.9h0c4.2.2,7.8.8,10.7,2,2.9,1.1,5.3,2.3,7.1,3.7,1.8,1.3,3.1,2.5,4,3.3h0l-7.5,12.4c-.5-.8-1.5-1.9-2.8-3.2-1.3-1.2-2.9-2.4-4.9-3.4-2-1-4.1-1.5-6.6-1.6h0c-3.4-.1-5.9.7-7.7,2.6-1.7,1.9-2.6,4.1-2.8,6.8h0c-.1,3.4,1,6.1,3.4,8.4,2.4,2.2,5.3,4.5,8.7,6.7h0c3.8,2.4,7.3,4.9,10.6,7.4,3.2,2.5,5.8,5.4,7.7,8.7,1.9,3.3,2.8,7.5,2.6,12.6h0c-.3,7.6-2.9,13.4-7.9,17.5-4.9,4.1-11.5,6-19.8,5.7Z"/>
        <path class="cls-1" d="M1126.5,667.1h0c-5.6-1.4-10.4-3.6-14.4-6.6-4-3.1-6.8-7.2-8.3-12.5-1.6-5.3-1.3-11.9.7-20h0l13.6-54.1,15.7,4-14,55.8c-1.2,4.8-1.3,8.5-.4,11.3,1,2.8,2.4,4.9,4.4,6.2,2,1.4,3.9,2.3,5.8,2.8h0c2,.5,4.1.6,6.4.4,2.3-.3,4.5-1.5,6.6-3.5,2-2,3.7-5.4,4.9-10.3h0l14-55.8,15.7,3.9-13.6,54.1c-2,8-4.9,14-8.7,18-3.8,3.9-8.1,6.3-13,7.2-4.9.8-10,.5-15.3-.8h0Z"/>
        <path class="cls-1" d="M1231.2,707.5l-1.1-.5-19.1-60.1-1.5-6.2-4.3,11.3-15.5,35.4-14-6.1,35.4-80.9,1.3.6,18.3,60.3,1.7,6.9,4.2-11.1,16.1-36.7,14,6.1-35.5,81.1Z"/>
        <path class="cls-1" d="M1266.3,727.1l-13.6-8.2,44.9-74.3,13.6,8.2-44.9,74.3Z"/>
        <path class="cls-1" d="M1304.6,757.5l-1.5-1.2,28.2-89.5,13.4,10.9-13.4,38.3-5.4,14.3,12.9-8.3,34.4-21.3,13.2,10.8-81.7,46Z"/>
        <path class="cls-1" d="M1373.5,822.5l-33-34.5,62.8-59.9,31.3,32.8-9.8,9.4-20.6-21.5-14.7,14,16.3,17.1-9.6,9.1-16.3-17.1-18.5,17.7,22.3,23.3-10.2,9.7Z"/>
        <path class="cls-1" d="M1429.3,849.2l-11.7,35.7-11.2-15.8,12.8-36.3-25.6,18.1-9.1-12.9,70.9-50.1,14,19.7c3.4,4.8,5.7,9.6,7,14.4,1.3,4.8,1.1,9.4-.7,13.9-1.8,4.5-5.4,8.8-11.1,12.7h0c-3.1,2.2-6.6,3.9-10.6,5.3-4,1.3-8.1,1.6-12.4,1.1-4.3-.6-8.3-2.6-12.2-5.9h0ZM1454.3,808.1l-28.7,20.3,3.8,5.4c2.1,3,4.6,5,7.4,6,2.8,1,5.8,1.2,8.8.6s5.8-1.8,8.5-3.7h0c4.6-3.2,7.2-6.7,8-10.4.8-3.7-.6-8-4.2-13.1h0l-3.6-5.1Z"/>
        <path class="cls-1" d="M1433.5,920.4h0c-2.7-5.5-4.2-10.7-4.4-15.6-.2-5,.2-9,1.2-11.9h0l14.6-.2c-.6,1.3-1.2,3.1-1.6,5.4-.4,2.3-.5,4.8-.3,7.6.2,2.7.9,5.3,2.1,7.6h0c1.4,2.8,3.4,4.8,6,6.1,2.6,1.3,5.4,1.1,8.4-.4h0c3-1.5,4.9-3.8,5.6-6.8.7-3,1.2-6.9,1.6-11.7h0c.3-3.9.8-7.8,1.3-11.8.6-3.9,2-7.6,4-11,2-3.4,5.3-6.3,9.9-8.6h0c6.1-3.1,12.1-3.6,18-1.6,5.9,1.9,10.8,6.6,14.5,14.1h0c1.9,3.8,3,7.2,3.5,10.3.5,3.1.5,5.8.2,8-.3,2.2-.6,3.9-1,5.1h0l-14.5-.6c.5-.9.9-2.2,1.4-4,.5-1.7.6-3.7.6-5.9,0-2.2-.7-4.4-1.8-6.5h0c-1.5-3-3.5-4.8-6-5.5-2.5-.6-4.9-.3-7.3.9h0c-3,1.5-4.9,3.8-5.7,7-.8,3.2-1.3,6.8-1.7,10.9h0c-.3,4.5-.8,8.8-1.4,12.9-.6,4-1.9,7.6-3.9,10.9s-5.3,6.1-9.8,8.3h0c-6.8,3.4-13.2,3.9-19.1,1.6-6-2.3-10.9-7.2-14.6-14.6h0Z"/>
        <path class="cls-1" d="M1468.5,1006.1l-15.6-45.2,82-28.3,14.8,42.8-12.8,4.4-9.7-28.1-19.2,6.6,7.7,22.4-12.5,4.3-7.7-22.4-24.2,8.4,10.5,30.5-13.3,4.6Z"/>
      </g>
      <g id="text-1">
        <path class="cls-1" d="M490.4,1327.7l-12.2-39.9,83-25.4,4.6,15.1-69.9,21.4,7.6,24.8-13.1,4Z"/>
        <path class="cls-1" d="M577.9,1348.2l-7.1-15.9,15.1-6.8,7.1,15.9-15.1,6.8ZM511.9,1377.2l-6.6-14.7,56.6-25.4,6.6,14.7-56.6,25.4Z"/>
        <path class="cls-1" d="M547.8,1438l-6-9.3,38.5-54.8,9.4,14.6-20.3,25.9-7.1,7.8,9.9-3.4,31.7-8.2,8.9,13.8-65,13.6Z"/>
        <path class="cls-1" d="M597.3,1504.9h0c-4.6-5.2-7.2-10.4-7.8-15.6-.6-5.2.2-10.1,2.6-14.7,2.3-4.6,5.6-8.8,10-12.7h0c4.5-4,9.4-6.8,14.6-8.4,5.2-1.7,10.4-1.9,15.6-.7,5.1,1.2,9.7,4.2,13.8,8.9h0c6.1,7,8.4,13.6,6.8,19.9-1.5,6.3-6,12.7-13.4,19.3h0c-.7.6-1.5,1.3-2.5,2.1s-1.9,1.5-2.7,2.1h0l-24.7-28c-3.5,3.4-5.5,7-5.9,10.7-.4,3.7,1,7.5,4.3,11.2h0c1.7,1.9,4,3.6,6.8,5.1,2.8,1.5,5.3,2.2,7.4,2.2h0l-5.6,11.5c-1.9-.5-4.6-1.6-8-3.4-3.4-1.8-7.1-5-11.2-9.6h0ZM616.7,1470.7h0l14.5,16.4c3.2-2.9,5.5-5.3,6.7-7.5,1.2-2.1,1.7-3.9,1.5-5.5-.2-1.5-.9-3-2-4.2h0c-2.8-3.2-6.1-4.5-9.8-4-3.8.5-7.4,2.1-10.8,4.9h0Z"/>
        <path class="cls-1" d="M710.1,1597.4l-13.4-8.7,19.2-29.3,5.4-58.3,14.7,9.6-5.4,41.5,35.3-22,14.6,9.5-51.8,29.3-18.5,28.4Z"/>
        <path class="cls-1" d="M778,1636h0c-8.3-3.8-13.5-9.4-15.6-16.7-2.1-7.3-1.1-15.5,3.2-24.7h0c4.3-9.3,10-15.4,17.1-18.4,7-3,14.7-2.6,23,1.2h0c8.3,3.8,13.4,9.4,15.3,16.8,1.9,7.4.7,15.5-3.4,24.4h0c-4.1,8.9-9.7,15-16.6,18.2-7,3.3-14.6,3-22.9-.9h0ZM783.5,1624.8h0c7.2,3.3,13.5-1.1,19.1-13.1h0c5.6-12.1,4.8-19.8-2.3-23.2h0c-3.5-1.6-6.9-1.5-10.2.4-3.3,1.9-6.4,6.1-9.4,12.6h0c-3,6.5-4.2,11.5-3.5,15.2.7,3.7,2.8,6.4,6.3,8Z"/>
        <path class="cls-1" d="M860,1665.8h0c-6.1-1.7-10-4.8-11.8-9.4-1.8-4.6-1.8-10.3,0-17.1h0l10.8-39.5,15,4.1-10.5,38.2c-.9,3.3-1,6.1-.4,8.5.6,2.4,2.4,4,5.3,4.8h0c2.8.8,5.5.4,8-1.2,2.5-1.6,4.1-4,5-7.3h0l10.5-38.2,15,4.1-16.4,59.8-13.6-3.7,1.8-7.8c-2.1,2-4.7,3.5-7.8,4.6-3.1,1.2-6.7,1.2-11.1,0h0Z"/>
        <path class="cls-1" d="M949.7,1680.9l-15.5-1.6,6.6-61.7,14,1.5-.4,11c.8-1.5,2-3.2,3.6-4.9,1.6-1.7,3.7-3,6.2-3.9,2.6-1,5.9-1.3,9.8-.9h0c1.2.1,2.2.3,3.1.6.9.3,1.7.6,2.5,1h0l-5.2,15.9c-1.2-1.5-3.2-2.4-5.9-2.7h0c-3.2-.3-5.8,0-8,1.1-2.2,1.1-3.8,2.4-5,3.9s-1.8,2.7-1.8,3.6h0l-3.9,37.1Z"/>
        <path class="cls-1" d="M1080.1,1677.6l-23.3,3.1-11.4-86,22.9-3.1c10.1-1.3,17.8-.3,22.9,3.1,5.1,3.4,8.2,8.8,9.1,16h0c.4,3.2,0,6.7-1,10.3-1.1,3.6-3.3,6.4-6.7,8.6h0c5,.5,9,2.4,11.8,5.7,2.8,3.3,4.6,7.7,5.3,13.1h0c1,7.6-.8,13.9-5.4,19.1-4.6,5.2-12.7,8.6-24.3,10.1h0ZM1069.9,1603.9h0l-7.4,1,3.2,23.8,10-1.3c2.8-.4,5-1.3,6.4-2.8,1.4-1.6,2.3-3.4,2.7-5.4.5-2,.6-3.9.3-5.8h0c-.4-3-1.4-5.2-2.9-6.6-1.5-1.5-3.4-2.4-5.6-2.7-2.2-.3-4.5-.4-6.8,0h0ZM1076,1638.9h0l-8.8,1.2,3.5,26,9.5-1.3c2.4-.3,4.8-1,7-1.9,2.2-1,3.9-2.5,5.1-4.6,1.2-2.1,1.5-5,1-8.7h0c-.5-3.7-1.6-6.4-3.4-8.1-1.8-1.6-3.9-2.5-6.4-2.8-2.5-.3-5-.2-7.6.1h0Z"/>
        <path class="cls-1" d="M1175.5,1656.8h0c-6.6,2.1-12.4,2.4-17.4.9s-9.1-4.2-12.4-8.3c-3.3-4-5.8-8.7-7.6-14.2h0c-1.8-5.7-2.4-11.3-1.8-16.8.6-5.5,2.4-10.3,5.6-14.5,3.2-4.2,7.7-7.2,13.7-9.1h0c8.8-2.8,15.8-2.2,21,1.8,5.2,4,9.3,10.6,12.2,20h0c.3.8.6,1.9.9,3.2.4,1.3.6,2.4.9,3.3h0l-35.6,11.3c1.7,4.6,4.2,7.8,7.4,9.7,3.2,1.9,7.2,2.1,12,.6h0c2.5-.8,4.9-2.2,7.4-4.1,2.5-2,4.1-4,5-5.9h0l8.3,9.7c-1.2,1.6-3.3,3.6-6.3,6-3,2.4-7.4,4.5-13.3,6.4h0ZM1151.9,1625.2h0l20.9-6.6c-1.3-4.1-2.7-7.2-4.1-9.2-1.4-1.9-2.9-3.1-4.5-3.6-1.5-.4-3.1-.4-4.7.2h0c-4,1.3-6.6,3.7-7.7,7.4-1.1,3.6-1,7.6,0,11.9h0Z"/>
        <path class="cls-1" d="M1251.5,1624.6h0c-4.1,2-7.6,3.3-10.5,3.9-3,.5-5.4.6-7.3.4-1.9-.3-3.4-.6-4.3-1h0l-1.2-12.7c2.3.5,5,.8,8.3.8,3.2,0,6.5-.8,9.8-2.5h0c2.6-1.3,4.2-2.8,4.7-4.4.5-1.6.5-3-.2-4.3h0c-.9-1.7-2.9-2.7-6-2.9-3.1-.2-6.6-.2-10.5,0h0c-2.3.2-4.8.1-7.6,0-2.8-.2-5.4-.9-7.9-2.3-2.5-1.3-4.6-3.6-6.3-6.8h0c-2.5-5-2.7-10-.6-14.7,2.2-4.8,6.6-8.9,13.3-12.3h0c4.3-2.2,8.2-3.3,11.9-3.6,3.6-.3,6.2-.1,7.7.4h0l1.3,11.9c-2-.4-4.4-.5-7.1-.4-2.7.1-5.4.8-7.9,2.1h0c-2.8,1.4-4.6,2.8-5.4,4.1-.7,1.3-.7,2.8.1,4.4h0c.9,1.8,2.7,2.8,5.2,3,2.6.2,5.5.1,8.9-.2h0c5.5-.5,10.4-.1,14.6,1.1s7.3,3.9,9.3,7.9h0c1.5,3.1,2.3,6.3,2.2,9.6-.1,3.4-1.3,6.7-3.6,9.9-2.3,3.2-6,6.1-11.1,8.7h0Z"/>
        <path class="cls-1" d="M1323.3,1581.6h0c-5.8,4-10.7,5.3-14.8,3.7-4.1-1.6-8.3-5.4-12.5-11.4h0l-16.5-23.6-6.6,4.6-7.5-10.7,7.1-5-6.8-11.2,7.8-12.6,10.8,15.5,12.5-8.8,7.5,10.7-12.5,8.8,16.3,23.2c2.1,3,3.9,4.7,5.6,5.3s3.2.3,4.6-.7h0c1.5-1,2.8-2.6,3.9-4.5,1.1-1.9,1.9-3.6,2.2-5.1h0l9.7,8.6c-.5,1.5-1.4,3.1-2.7,4.9-1.3,1.7-2.7,3.4-4.2,4.9-1.5,1.5-2.8,2.6-3.9,3.4h0Z"/>
        <path class="cls-1" d="M1427.1,1482l-28.1,30.9-64.2-58.4,10.7-11.7,54.1,49.2,17.4-19.1,10.1,9.2Z"/>
        <path class="cls-1" d="M1400.1,1396.4l-10,14.3-13.5-9.5,10-14.3,13.5,9.5ZM1458.7,1438.4l-9.3,13.2-50.7-35.7,9.3-13.2,50.7,35.7Z"/>
        <path class="cls-1" d="M1488.2,1386.4l-6.9,13.3-43.4-22.6-3.9,7.4-11.6-6,3.9-7.4-10.2-5.3c-4.2-2.2-7.4-4.6-9.4-7.2-2.1-2.7-3.3-5.3-3.8-8-.4-2.7-.4-5.2.2-7.7.5-2.5,1.3-4.6,2.2-6.5h0c1.9-3.6,3.6-6.2,5.3-7.6,1.6-1.5,2.6-2.3,3.1-2.5h0l12,6.3c-1.5.3-3,1.1-4.3,2.5s-2.3,2.7-2.9,3.8h0c-.7,1.4-1.2,2.8-1.4,4.4s0,3.1.8,4.7c.8,1.6,2.5,3,4.9,4.3h0l10.4,5.4,7-13.4,11.6,6-7,13.4,43.4,22.6Z"/>
        <path class="cls-1" d="M1518.7,1318.8h0c-2.4,6.5-5.7,11.3-9.9,14.3-4.2,3-8.9,4.6-14.1,4.8-5.2.2-10.5-.7-15.9-2.7h0c-5.6-2.1-10.4-5-14.4-8.8-4-3.8-6.7-8.2-8.1-13.3-1.4-5.1-1-10.5,1.2-16.4h0c3.2-8.7,7.9-13.9,14.3-15.5,6.3-1.7,14.1-.8,23.3,2.6h0c.8.3,1.9.7,3.1,1.2s2.3.9,3.2,1.4h0l-12.8,35.1c4.7,1.5,8.7,1.5,12.2,0,3.5-1.4,6.1-4.4,7.8-9.1h0c.9-2.4,1.3-5.2,1.2-8.4,0-3.2-.6-5.7-1.6-7.6h0l12.8-.6c.5,1.9.8,4.8.9,8.7,0,3.8-1,8.6-3.1,14.4h0ZM1479.3,1318.1h0l7.5-20.6c-4.1-1.5-7.3-2.3-9.8-2.4-2.4,0-4.3.4-5.6,1.4-1.2.9-2.2,2.2-2.7,3.8h0c-1.5,4-1.1,7.5,1.1,10.6,2.2,3.1,5.4,5.5,9.4,7.2Z"/>
      </g>
      <g id="circle-seperators">
        <path id="circle-seperator-2" class="cls-1" d="M475.1,1134.9c0-5.6,4.5-10.1,10.1-10.1s10.1,4.5,10.1,10.1-4.5,10.1-10.1,10.1-10.1-4.5-10.1-10.1Z"/>
        <path id="circle-seperator-1" class="cls-1" d="M1504.7,1134.9c0-5.6,4.5-10.1,10.1-10.1s10.1,4.5,10.1,10.1-4.5,10.1-10.1,10.1-10.1-4.5-10.1-10.1Z"/>
      </g>
      <path id="outer-circle" class="cls-1" d="M1000,262.7c451,0,821.7,349.5,857.1,791h139.3c-7.1-111-33.1-217.2-75.6-318.8-49.6-118.1-122.8-226.7-214.9-316.4-92.1-92.1-198.3-162.9-316.4-214.9-125.1-51.9-255-80.3-389.6-80.3s-264.5,26-389.6,77.9c-118.1,49.6-226.7,122.8-316.4,214.9-92.1,92.1-162.9,198.3-214.9,316.4C36.6,834.1,10.6,942.7,3.6,1051.3h139.3c35.4-439.2,406.1-788.7,857.1-788.7h0ZM1000,1981.7c-451,0-821.7-349.5-857.1-791H3.6c7.1,111,33.1,217.2,75.6,318.8,49.6,118.1,122.8,226.7,214.9,316.4,92.1,92.1,198.3,162.9,316.4,214.9,122.8,51.9,252.7,77.9,389.6,77.9s264.5-26,389.6-77.9c118.1-49.6,226.7-122.8,316.4-214.9,92.1-92.1,162.9-198.3,214.9-316.4,42.5-101.5,68.5-210.2,75.6-318.8h-139.3c-35.4,441.6-406.1,791-857.1,791h0Z"/>
    </g>
  </g>
</svg>